<svg width="178" height="41" viewBox="0 0 178 41" fill="none" xmlns="http://www.w3.org/2000/svg">
<circle cx="20.5" cy="20.5" r="20.5" fill="white"/>
<path d="M16.1538 16.2332C16.5149 27.1202 18.1508 32.5637 21.0615 32.5637C22.3026 32.5637 23.7918 31.4287 25.5292 29.1586L25.7662 29.5756C23.6451 32.8185 21.6144 34.44 19.6738 34.44C17.7559 34.44 16.199 32.9343 15.0031 29.923C13.8072 26.8886 13.1754 22.8581 13.1077 17.8315C10.3097 19.3372 8.82051 20.09 8.64 20.09C8.34666 20.09 8.2 19.9278 8.2 19.6036C8.2 19.2793 8.35795 19.0245 8.67384 18.8391L13.1077 16.4069C13.1528 14.6465 13.2318 12.9787 13.3446 11.4036C13.3446 11.1951 13.4462 11.0561 13.6492 10.9866C15.0031 10.4307 15.759 10.1527 15.9169 10.1527C16.0974 10.1527 16.1877 10.2569 16.1877 10.4654C16.1426 11.6236 16.12 12.6776 16.12 13.6273V14.7391L17.88 13.7663C22.641 11.1488 25.0779 9.84 25.1908 9.84C25.3262 9.84 25.4277 9.87474 25.4954 9.94423C25.9918 10.4538 26.24 10.7434 26.24 10.8129C26.24 10.8824 26.1723 10.975 26.0369 11.0908C25.9015 11.1835 25.3938 11.4615 24.5138 11.9247C23.6564 12.3649 22.359 13.025 20.6215 13.9053C18.9067 14.7855 17.4174 15.5615 16.1538 16.2332Z" fill="#0678FE"/>
<path d="M62.3419 27.0404C62.3419 28.0544 62.6315 28.5613 63.2109 28.5613C63.688 28.5613 64.1651 28.2179 64.6422 27.531C65.1193 26.8605 65.3579 26.0673 65.3579 25.1515C65.3579 24.2357 65.2471 23.2872 65.0256 22.3059C63.2364 23.9086 62.3419 25.4868 62.3419 27.0404ZM49.8435 9.20635C50.3717 8.5849 52.9617 7.52189 57.6134 6.01732C62.2482 4.51275 66.5932 3.50697 70.6486 3C70.9042 3 71.032 3.04088 71.032 3.12265C71.032 3.20442 70.9809 3.29437 70.8786 3.3925L69.7029 4.59452C69.5836 4.7417 69.1576 4.88889 68.4249 5.03607C67.6923 5.16691 67.0788 5.3468 66.5847 5.57576C66.1076 5.78836 65.6646 6.05002 65.2556 6.36075C64.8637 6.65512 64.5314 7.0885 64.2588 7.66089C64.0032 8.23329 63.8754 8.92833 63.8754 9.74603C63.8754 10.5474 64.3184 12.2318 65.2045 14.7994C66.0905 17.3507 66.6528 19.2068 66.8914 20.368C68.1182 19.632 69.098 19.1905 69.8307 19.0433C70.0863 19.0433 70.2141 19.076 70.2141 19.1414C70.2141 19.1905 70.1204 19.2395 69.9329 19.2886C69.2684 19.4685 68.2801 19.9755 66.9681 20.8095C67.1044 21.5618 67.1726 22.2405 67.1726 22.8456C67.1726 23.9904 66.8573 25.1188 66.2269 26.2309C65.6134 27.3593 64.8893 28.2424 64.0543 28.8802C63.2364 29.5344 62.4952 29.8615 61.8307 29.8615C60.9446 29.8615 60.5016 29.2564 60.5016 28.0462C60.5016 26.0837 61.967 23.974 64.8978 21.7172C64.6422 20.7359 64.2247 19.5257 63.6454 18.0866C63.066 16.6474 62.5804 15.3228 62.1885 14.1126C61.8137 12.886 61.6262 11.7494 61.6262 10.7027C61.6262 9.65608 61.8733 8.83838 62.3674 8.24964C62.8616 7.64454 63.8839 6.7696 65.4345 5.62482C65.213 5.62482 64.0629 5.96008 61.984 6.63059C59.9052 7.28475 57.5879 8.09428 55.032 9.05916C52.459 10.0077 50.6528 10.8009 49.6134 11.4387C49.3749 11.5695 49.213 11.6349 49.1278 11.6349C49.0426 11.6349 49 11.5286 49 11.316C49 10.8908 49.213 10.3021 49.639 9.54978L49.8435 9.20635Z" fill="white"/>
<path d="M75.641 22.2814C75.8625 21.8071 75.9733 21.2102 75.9733 20.4906C75.9733 19.771 75.871 19.2068 75.6666 18.798C75.4791 18.3728 75.2576 18.1602 75.002 18.1602C74.8146 18.1602 74.6527 18.2747 74.5164 18.5036C74.3801 18.7326 74.3119 19.0596 74.3119 19.4848C74.3119 19.8937 74.4312 20.368 74.6698 20.9076C74.9083 21.4473 75.2321 21.9052 75.641 22.2814ZM71.4238 21.0303C71.4238 21.7499 71.6197 22.3632 72.0116 22.8701C72.4206 23.3607 72.9488 23.6061 73.5963 23.6061C74.2438 23.6061 74.772 23.3853 75.1809 22.9437C74.5164 22.5022 73.9711 21.8807 73.5452 21.0794C73.1192 20.278 72.9062 19.4113 72.9062 18.4791C72.9062 18.381 72.9232 18.2501 72.9573 18.0866C71.9349 18.7734 71.4238 19.7547 71.4238 21.0303ZM72.625 25.0043C71.6367 25.0043 70.87 24.6854 70.3247 24.0476C69.7965 23.4098 69.5324 22.6003 69.5324 21.619C69.5324 20.6378 69.8561 19.7383 70.5036 18.9206C71.1511 18.0866 72.0372 17.645 73.1618 17.596C73.4344 17.1871 73.8348 16.9827 74.3631 16.9827C74.9083 16.9827 75.3939 17.2852 75.8199 17.8903C76.263 18.4791 76.4845 19.2477 76.4845 20.1962C76.4845 21.1448 76.3396 21.9543 76.05 22.6248C76.4759 22.9192 76.919 23.0664 77.379 23.0664C78.2821 23.0664 79.1256 22.4858 79.9094 21.3247L80.1139 21.57C79.2789 22.8783 78.2651 23.5325 77.0723 23.5325C76.5952 23.5325 76.1437 23.4343 75.7177 23.2381C75.3428 23.7941 74.8742 24.2275 74.3119 24.5382C73.7667 24.849 73.2044 25.0043 72.625 25.0043Z" fill="white"/>
<path d="M84.9647 18.5772C84.9647 18.43 85.0414 18.3319 85.1947 18.2828C86.2171 17.8903 86.7879 17.6941 86.9072 17.6941C87.0435 17.6941 87.1117 17.7677 87.1117 17.9149C86.9924 18.5527 86.9328 19.1905 86.9328 19.8283C86.9328 21.0548 87.1543 22.0443 87.5973 22.7965C88.0403 23.5325 88.6282 23.9004 89.3609 23.9004C90.4855 23.9004 91.6953 23.0418 92.9903 21.3247L93.1692 21.619C92.4195 22.7475 91.6101 23.5979 90.7411 24.1703C89.8891 24.759 89.0627 25.0534 88.2618 25.0534C87.035 25.0534 86.1064 24.4401 85.4759 23.2136C84.8114 24.1621 83.9509 24.6364 82.8944 24.6364C81.855 24.6364 81.003 24.203 80.3385 23.3362C79.674 22.4531 79.3417 21.4146 79.3417 20.2208C79.3417 19.0596 79.6058 18.3155 80.134 17.9885C80.543 17.7595 81.0286 17.645 81.5909 17.645C81.7443 17.645 81.8209 17.9394 81.8209 18.5281C81.8209 19.1169 81.7017 19.7547 81.4631 20.4416C81.7017 21.6027 82.2469 22.4204 83.0989 22.8947C83.4397 23.0909 83.7975 23.189 84.1724 23.189C84.5643 23.189 84.9306 23.0337 85.2714 22.7229C84.9988 21.9707 84.8625 21.2184 84.8625 20.4661C84.8625 19.7138 84.8966 19.0842 84.9647 18.5772Z" fill="white"/>
<path d="M94.8233 19.9755L94.3377 19.9509C94.1673 19.9509 94.0481 20.0245 93.9799 20.1717C93.7754 20.6623 93.4517 21.2184 93.0087 21.8398L92.8042 21.57C93.145 21.1284 93.4091 20.5724 93.5965 19.9019C93.5965 19.771 93.5369 19.6811 93.4176 19.632C92.6508 19.3867 92.2674 18.7407 92.2674 17.6941C92.2674 17.4651 92.4719 17.2525 92.8809 17.0563C93.2898 16.8437 93.6306 16.7374 93.9032 16.7374C94.1759 16.7374 94.3122 16.8519 94.3122 17.0808C94.3122 18.3074 94.9085 18.9206 96.1013 18.9206C96.391 18.9206 96.621 18.8961 96.7914 18.847C96.9788 18.7816 97.0811 18.7489 97.0981 18.7489C97.2685 18.7489 97.3537 18.8716 97.3537 19.1169C97.3537 19.3458 97.2855 19.5094 97.1492 19.6075C97.03 19.6893 96.8936 19.8773 96.7403 20.1717C96.5869 20.4497 96.5103 20.7768 96.5103 21.153C96.5103 21.8889 96.7318 22.4695 97.1748 22.8947C97.6349 23.3035 98.1972 23.5079 98.8617 23.5079C99.5433 23.5079 100.216 23.3199 100.881 22.9437C101.545 22.5676 102.125 22.0279 102.619 21.3247L102.798 21.619C102.201 22.6166 101.375 23.418 100.319 24.0231C99.2621 24.6282 98.3164 24.9307 97.4815 24.9307C95.7776 24.9307 94.9256 24.1866 94.9256 22.6984C94.9256 22.4204 95.0278 22.0443 95.2323 21.57C95.4368 21.0957 95.6412 20.695 95.8457 20.368L96.1524 19.8773C96.1524 19.8119 96.1269 19.7792 96.0757 19.7792C95.5305 19.9101 95.113 19.9755 94.8233 19.9755Z" fill="white"/>
<path d="M103.845 8.32323C103.845 9.89322 104.816 11.3569 106.758 12.7143C107.661 10.4901 108.113 8.72391 108.113 7.41558C108.113 6.84319 107.917 6.31169 107.525 5.82107C107.133 5.33045 106.69 5.08514 106.196 5.08514C105.719 5.08514 105.284 5.33045 104.892 5.82107C104.518 6.31169 104.245 6.80231 104.075 7.29293C103.921 7.7672 103.845 8.11063 103.845 8.32323ZM100.522 24.3175C100.403 24.4319 100.3 24.4892 100.215 24.4892C100.079 24.4892 100.011 24.4238 100.011 24.2929C100.011 24.1621 100.045 24.0558 100.113 23.974C100.88 23.1563 101.783 21.9216 102.822 20.2698C103.862 18.6181 104.816 16.9009 105.685 15.1183C103.504 13.6628 102.413 12.1746 102.413 10.6537C102.413 9.63973 102.66 8.60943 103.154 7.56277C103.666 6.51611 104.339 5.64935 105.174 4.96248C106.026 4.27561 106.835 3.93218 107.602 3.93218C108.386 3.93218 108.914 4.11207 109.186 4.47186C109.476 4.8153 109.621 5.32227 109.621 5.99279C109.621 7.25204 108.829 9.60702 107.244 13.0577C107.806 13.4175 108.556 13.8591 109.493 14.3824C110.447 14.8894 111.257 15.3309 111.921 15.7071C112.603 16.0832 113.284 16.5166 113.966 17.0072C115.363 18.0375 116.062 19.1578 116.062 20.368C116.062 21.5618 115.414 22.6821 114.119 23.7287C112.824 24.759 111.512 25.2742 110.183 25.2742C108.087 25.2742 106.222 24.2275 104.586 22.1342C104.398 21.8889 104.305 21.6845 104.305 21.5209C104.305 21.341 104.518 21.0875 104.944 20.7605C105.37 20.417 105.702 20.2453 105.94 20.2453C105.991 20.2453 106.034 20.2698 106.068 20.3189C106.528 21.0875 107.355 21.9052 108.547 22.772C109.74 23.6388 110.907 24.0722 112.049 24.0722C113.463 23.974 114.17 23.3035 114.17 22.0606C114.17 21.0139 113.548 20.0327 112.305 19.1169C111.384 18.4464 110.251 17.7431 108.905 17.0072C107.559 16.2549 106.63 15.7152 106.119 15.3882C104.058 19.5421 102.192 22.5185 100.522 24.3175Z" fill="white"/>
<path d="M122.704 18.5772C122.704 18.43 122.781 18.3319 122.934 18.2828C123.957 17.8903 124.528 17.6941 124.647 17.6941C124.783 17.6941 124.851 17.7677 124.851 17.9149C124.732 18.5527 124.672 19.1905 124.672 19.8283C124.672 21.0548 124.894 22.0443 125.337 22.7965C125.78 23.5325 126.368 23.9004 127.101 23.9004C128.225 23.9004 129.435 23.0418 130.73 21.3247L130.909 21.619C130.159 22.7475 129.35 23.5979 128.481 24.1703C127.629 24.759 126.802 25.0534 126.002 25.0534C124.775 25.0534 123.846 24.4401 123.216 23.2136C122.551 24.1621 121.691 24.6364 120.634 24.6364C119.595 24.6364 118.743 24.203 118.078 23.3362C117.414 22.4531 117.081 21.4146 117.081 20.2208C117.081 19.0596 117.345 18.3155 117.874 17.9885C118.283 17.7595 118.768 17.645 119.331 17.645C119.484 17.645 119.561 17.9394 119.561 18.5281C119.561 19.1169 119.441 19.7547 119.203 20.4416C119.441 21.6027 119.987 22.4204 120.839 22.8947C121.179 23.0909 121.537 23.189 121.912 23.189C122.304 23.189 122.67 23.0337 123.011 22.7229C122.738 21.9707 122.602 21.2184 122.602 20.4661C122.602 19.7138 122.636 19.0842 122.704 18.5772Z" fill="white"/>
<path d="M136.422 22.2569C136.082 20.785 135.903 19.5748 135.886 18.6263C135.783 18.708 135.647 18.7489 135.477 18.7489C135.204 18.7489 135.068 18.5854 135.068 18.2583C135.068 18.1602 135.136 18.0702 135.272 17.9885C135.426 17.8903 135.502 17.7677 135.502 17.6205C135.502 17.3098 135.357 17.1544 135.068 17.1544C134.369 17.1544 133.79 17.5224 133.33 18.2583C132.887 18.9779 132.665 19.7302 132.665 20.5152C132.665 21.2838 132.827 21.8971 133.151 22.355C133.475 22.8129 133.952 23.0418 134.582 23.0418C135.213 23.0418 135.826 22.7802 136.422 22.2569ZM138.212 36.0188C138.535 36.0188 138.799 35.8307 139.004 35.4545C139.225 35.0784 139.336 34.4815 139.336 33.6638C139.336 32.8624 138.808 30.7037 137.752 27.1876C136.695 28.7576 136.167 30.4012 136.167 32.1183C136.167 33.2468 136.38 34.1789 136.806 34.9149C137.249 35.6508 137.717 36.0188 138.212 36.0188ZM142.327 21.619C141.85 22.3877 140.844 23.5979 139.311 25.2496C139.617 26.1164 139.847 26.8523 140.001 27.4574C140.171 28.0789 140.333 28.6595 140.486 29.1991C140.64 29.7552 140.75 30.1804 140.819 30.4747C140.989 31.3579 141.074 32.012 141.074 32.4372C141.074 33.7946 140.682 34.8903 139.898 35.7244C139.132 36.5748 138.297 37 137.394 37C136.508 37 135.775 36.6484 135.196 35.9452C134.633 35.2419 134.352 34.2116 134.352 32.8543C134.471 31.6768 134.804 30.5892 135.349 29.5916C135.894 28.594 136.635 27.5719 137.573 26.5253C137.13 24.988 136.789 23.7451 136.55 22.7965C135.903 23.418 135.23 23.8923 134.531 24.2193C133.832 24.5464 133.219 24.71 132.691 24.71C131.822 24.71 131.174 24.4892 130.748 24.0476C130.339 23.6061 130.135 23.0255 130.135 22.3059C130.135 21.0467 130.638 19.8038 131.643 18.5772C132.665 17.3343 133.824 16.7128 135.119 16.7128C135.835 16.7128 136.261 16.9418 136.397 17.3997C136.652 17.0726 136.942 16.7946 137.266 16.5657C137.59 16.3203 137.871 16.1977 138.109 16.1977C138.348 16.1977 138.467 16.3694 138.467 16.7128C138.467 16.811 138.382 17.138 138.212 17.6941C138.058 18.2501 137.982 18.6181 137.982 18.798C137.982 20.0899 138.382 22.0851 139.183 24.7836C140.563 23.328 141.551 22.1751 142.148 21.3247L142.327 21.619Z" fill="white"/>
<path d="M147.854 22.2569C147.513 20.785 147.334 19.5748 147.317 18.6263C147.215 18.708 147.079 18.7489 146.908 18.7489C146.636 18.7489 146.5 18.5854 146.5 18.2583C146.5 18.1602 146.568 18.0702 146.704 17.9885C146.857 17.8903 146.934 17.7677 146.934 17.6205C146.934 17.3098 146.789 17.1544 146.5 17.1544C145.801 17.1544 145.222 17.5224 144.762 18.2583C144.318 18.9779 144.097 19.7302 144.097 20.5152C144.097 21.2838 144.259 21.8971 144.583 22.355C144.906 22.8129 145.383 23.0418 146.014 23.0418C146.644 23.0418 147.258 22.7802 147.854 22.2569ZM149.643 36.0188C149.967 36.0188 150.231 35.8307 150.436 35.4545C150.657 35.0784 150.768 34.4815 150.768 33.6638C150.768 32.8624 150.24 30.7037 149.183 27.1876C148.127 28.7576 147.599 30.4012 147.599 32.1183C147.599 33.2468 147.812 34.1789 148.238 34.9149C148.681 35.6508 149.149 36.0188 149.643 36.0188ZM153.758 21.619C153.281 22.3877 152.276 23.5979 150.742 25.2496C151.049 26.1164 151.279 26.8523 151.432 27.4574C151.603 28.0789 151.765 28.6595 151.918 29.1991C152.071 29.7552 152.182 30.1804 152.25 30.4747C152.421 31.3579 152.506 32.012 152.506 32.4372C152.506 33.7946 152.114 34.8903 151.33 35.7244C150.563 36.5748 149.729 37 148.825 37C147.939 37 147.207 36.6484 146.627 35.9452C146.065 35.2419 145.784 34.2116 145.784 32.8543C145.903 31.6768 146.235 30.5892 146.781 29.5916C147.326 28.594 148.067 27.5719 149.004 26.5253C148.561 24.988 148.221 23.7451 147.982 22.7965C147.334 23.418 146.661 23.8923 145.963 24.2193C145.264 24.5464 144.651 24.71 144.123 24.71C143.254 24.71 142.606 24.4892 142.18 24.0476C141.771 23.6061 141.567 23.0255 141.567 22.3059C141.567 21.0467 142.069 19.8038 143.075 18.5772C144.097 17.3343 145.256 16.7128 146.551 16.7128C147.266 16.7128 147.692 16.9418 147.829 17.3997C148.084 17.0726 148.374 16.7946 148.698 16.5657C149.021 16.3203 149.303 16.1977 149.541 16.1977C149.78 16.1977 149.899 16.3694 149.899 16.7128C149.899 16.811 149.814 17.138 149.643 17.6941C149.49 18.2501 149.413 18.6181 149.413 18.798C149.413 20.0899 149.814 22.0851 150.615 24.7836C151.995 23.328 152.983 22.1751 153.579 21.3247L153.758 21.619Z" fill="white"/>
<path d="M156.244 16.7619L156.27 16.443C156.27 16.2468 156.04 16.1486 155.58 16.1486C155.12 16.1486 154.702 16.2795 154.327 16.5411C153.97 16.8028 153.791 17.1544 153.791 17.596C153.791 18.381 154.379 18.7734 155.554 18.7734C155.742 18.7734 155.929 18.7489 156.117 18.6999C156.321 18.6344 156.526 18.6017 156.73 18.6017C156.934 18.6017 157.037 18.6671 157.037 18.798C157.037 18.8143 156.969 18.8552 156.832 18.9206C156.696 18.9697 156.526 19.0515 156.321 19.1659C156.134 19.2804 155.938 19.4276 155.733 19.6075C155.256 20.0327 155.018 20.6133 155.018 21.3492C155.018 22.0851 155.248 22.6493 155.708 23.0418C156.168 23.418 156.764 23.6061 157.497 23.6061C158.229 23.6061 158.979 23.4016 159.746 22.9928C160.513 22.5839 161.135 22.0279 161.612 21.3247L161.791 21.619C161.143 22.6984 160.24 23.5488 159.081 24.1703C157.94 24.8081 156.892 25.127 155.938 25.127C155 25.127 154.276 24.9389 153.765 24.5628C153.271 24.1866 153.024 23.7042 153.024 23.1154C153.024 22.5103 153.177 21.9543 153.484 21.4473C153.791 20.9404 154.055 20.5806 154.276 20.368C154.515 20.139 154.685 19.9836 154.787 19.9019C154.907 19.8038 154.966 19.7383 154.966 19.7056C154.966 19.6566 154.958 19.632 154.941 19.632C154.396 19.8283 153.867 19.9264 153.356 19.9264C152.453 19.9264 152.002 19.5748 152.002 18.8716C152.002 17.923 152.564 17.1053 153.688 16.4185C154.813 15.7316 155.793 15.3882 156.628 15.3882C157.48 15.3882 157.906 15.5844 157.906 15.9769C157.906 16.2222 157.769 16.4839 157.497 16.7619C157.224 17.0399 156.977 17.1789 156.756 17.1789C156.415 17.1789 156.244 17.0399 156.244 16.7619Z" fill="white"/>
<path d="M169.368 21.3247L169.547 21.619C168.831 22.7148 167.971 23.5488 166.965 24.1212C165.96 24.71 165.006 25.0043 164.103 25.0043C162.279 25.0043 161.07 24.252 160.473 22.7475C160.473 22.6657 160.669 22.3959 161.061 21.938C161.453 21.48 161.709 21.2511 161.828 21.2511C161.964 21.2511 162.041 21.292 162.058 21.3737C162.16 21.8971 162.441 22.4531 162.901 23.0418C163.378 23.6306 163.813 23.925 164.205 23.925C164.818 23.925 165.133 23.7614 165.151 23.4343C165.151 22.9274 164.529 22.1587 163.285 21.1284C162.825 20.7359 162.399 20.2371 162.007 19.632C161.632 19.0106 161.444 18.3728 161.444 17.7186C161.444 17.5878 161.47 17.4978 161.521 17.4488C162.271 16.7946 162.765 16.4675 163.004 16.4675C163.191 16.4675 163.285 16.6065 163.285 16.8846C163.302 17.4897 163.566 18.1193 164.077 18.7734C164.605 19.4113 165.116 20.0245 165.611 20.6133C166.122 21.202 166.377 21.7908 166.377 22.3795C166.377 22.9519 166.079 23.4671 165.483 23.925C166.88 23.8923 168.175 23.0255 169.368 21.3247Z" fill="white"/>
<path d="M170.383 12.1991C170.656 19.8855 171.891 23.7287 174.089 23.7287C175.027 23.7287 176.151 22.9274 177.463 21.3247L177.642 21.619C176.04 23.9086 174.507 25.0534 173.042 25.0534C171.593 25.0534 170.417 23.9904 169.514 21.8644C168.611 19.722 168.134 16.8764 168.083 13.3276C165.97 14.3906 164.846 14.9221 164.709 14.9221C164.488 14.9221 164.377 14.8076 164.377 14.5786C164.377 14.3497 164.496 14.1698 164.735 14.039L168.083 12.3218C168.117 11.0789 168.177 9.90139 168.262 8.78932C168.262 8.64214 168.339 8.54401 168.492 8.49495C169.514 8.10245 170.085 7.90621 170.204 7.90621C170.341 7.90621 170.409 7.9798 170.409 8.12699C170.375 8.94469 170.358 9.68879 170.358 10.3593V11.1443L171.687 10.4574C175.282 8.60943 177.122 7.68543 177.208 7.68543C177.31 7.68543 177.387 7.70996 177.438 7.75902C177.813 8.11881 178 8.32323 178 8.3723C178 8.42136 177.949 8.48677 177.847 8.56854C177.744 8.63396 177.361 8.83021 176.696 9.15729C176.049 9.46801 175.069 9.9341 173.757 10.5556C172.462 11.177 171.338 11.7249 170.383 12.1991Z" fill="white"/>
</svg>
